# xmcd CD database file
#
# Track frame offsets:
#	150
#	12169
#	24657
#	39344
#	53084
#	67505
#	78438
#	91582
#	104718
#	117444
#	129139
#	141718
#	154293
#	166818
#	180198
#	191355
#	202268
#	214447
#	225894
#	237425
#	249251
#	264093
#	275587
#	288282
#	301899
#	313251
#	323886
#
# Disc length: 4490 seconds
#
# Revision: 0
# Processed by: cddbd v1.5.2PL0 Copyright (c) Steve Scherf et al.
# Submitted via: CDex 1.51
#
DISCID=6d11881b
DTITLE=George Shearing - The Complete Quintet Studio Sessions CD2
DYEAR=1950
DGENRE=Jazz
TTITLE0=When Your Lover Has Gone
TTITLE1=As Long As There's Music
TTITLE2=Cynthia
TTITLE3=Roses Of Picardy
TTITLE4=For You
TTITLE5=(Geneva's) Move
TTITLE6=Pick Yourself Up
TTITLE7=I'll Never Smile Again
TTITLE8=I'll Be Around
TTITLE9=I Remember You
TTITLE10=My Silent Love
TTITLE11=If You Were The Only Girl In The World
TTITLE12=Indian Summer
TTITLE13=Quintessence
TTITLE14=The Breeze And I
TTITLE15=They All Laughed
TTITLE16=For Evan's Sake
TTITLE17=Loose Leaf
TTITLE18=Minoration
TTITLE19=To A Wild Rose
TTITLE20=Midnight Mood
TTITLE21=Brainwave
TTITLE22=Five O' Clock Whistle
TTITLE23=Simplicity
TTITLE24=We'll Be Together Again
TTITLE25=Don't Blame Me
TTITLE26=So This Is Cuba
EXTD=YEAR: 1950
EXTT0=
EXTT1=
EXTT2=
EXTT3=
EXTT4=
EXTT5=
EXTT6=
EXTT7=
EXTT8=
EXTT9=
EXTT10=
EXTT11=
EXTT12=
EXTT13=
EXTT14=
EXTT15=
EXTT16=
EXTT17=
EXTT18=
EXTT19=
EXTT20=
EXTT21=
EXTT22=
EXTT23=
EXTT24=
EXTT25=
EXTT26=
PLAYORDER=
